<?xml version="1.0" standalone="no"?>
<!DOCTYPE svg PUBLIC "-//W3C//DTD SVG 20010904//EN"
 "http://www.w3.org/TR/2001/REC-SVG-20010904/DTD/svg10.dtd">
<svg version="1.0" xmlns="http://www.w3.org/2000/svg"
 width="1000.000000pt" height="1000.000000pt" viewBox="0 0 1000.000000 1000.000000"
 preserveAspectRatio="xMidYMid meet">
<metadata>
Created by potrace 1.11, written by Peter Selinger 2001-2013
</metadata>
<g transform="translate(0.000000,1000.000000) scale(0.100000,-0.100000)"
fill="#000000" stroke="none">
<path d="M0 5000 l0 -5000 5000 0 5000 0 0 5000 0 5000 -5000 0 -5000 0 0
-5000z m5718 3173 l-353 -353 178 -177 177 -178 708 708 707 707 175 -175 175
-175 -355 -355 -355 -355 708 -708 707 -707 -175 -175 -175 -175 -353 353
-352 352 -178 -177 -177 -178 352 -352 353 -353 -353 -353 -352 -352 178 -178
177 -177 705 705 705 705 177 -177 178 -178 -352 -352 -353 -353 705 -705 705
-705 -178 -177 -177 -178 -353 353 -352 352 -175 -175 -175 -175 703 -703
c386 -386 702 -707 702 -712 0 -6 -78 -88 -173 -183 l-172 -172 -350 350
c-192 193 -354 350 -360 350 -5 0 -326 -316 -712 -702 l-703 -703 -175 175
-175 175 350 350 c192 193 350 355 350 360 0 13 -332 345 -345 345 -5 0 -326
-316 -712 -702 l-703 -703 -177 178 -178 177 353 353 352 352 -175 175 -175
175 -703 -703 c-386 -386 -707 -702 -712 -702 -6 0 -88 78 -183 173 l-172 172
350 350 c193 192 350 354 350 360 0 5 -316 326 -702 712 l-703 703 175 175
175 175 350 -350 c193 -192 355 -350 360 -350 13 0 345 332 345 345 0 5 -316
326 -702 712 l-703 703 178 177 177 178 352 -353 353 -352 707 707 708 708
177 -178 178 -177 -355 -355 -355 -355 708 -708 707 -707 -175 -175 -175 -175
-708 708 -707 707 -178 -177 -177 -178 352 -352 353 -353 -355 -355 -355 -355
178 -177 177 -178 355 355 355 355 352 -353 353 -352 352 352 353 353 355
-355 355 -355 177 178 178 177 -355 355 -355 355 353 353 352 352 -175 175
-175 175 -353 -353 -352 -352 -530 530 -530 530 353 353 352 352 -350 350
c-192 192 -350 354 -350 360 0 6 157 168 350 360 l350 350 -172 172 c-95 95
-177 173 -183 173 -6 0 -168 -158 -360 -350 l-350 -350 -352 352 -353 353
-175 -175 -175 -175 352 -352 353 -353 -530 -530 -530 -530 -352 352 -353 353
-355 -355 -355 -355 -353 353 -352 352 -178 -177 -177 -178 352 -352 353 -353
-353 -353 -352 -352 177 -178 178 -177 352 352 353 353 175 -175 175 -175
-882 -882 -883 -883 -175 175 -175 175 353 352 352 353 -707 707 -708 708 178
177 177 178 353 -353 352 -352 178 177 177 178 -707 707 -708 708 175 175 175
175 350 -350 c193 -192 355 -350 360 -350 5 0 326 316 712 702 l703 703 177
-178 178 -177 -353 -353 -352 -352 175 -175 175 -175 353 353 352 352 350
-350 c192 -192 354 -350 360 -350 13 0 345 332 345 345 0 5 -316 326 -702 712
l-703 703 178 177 177 178 353 -353 352 -352 705 705 705 705 177 -177 178
-178 -352 -352z"/>
</g>
</svg>
