<?xml version="1.0" standalone="no"?>
<!--Distance Scale: 100 Pixels = 1 Au-->
<svg width="2300" height="200" version="1.1" xmlns="http://www.w3.org/2000/svg">
	<desc>Namei System</desc>
	<defs>
		<polygon id='arrow' points="0 -1 7 -21 12 -15 47 -50 49 -48 14 -13 20 -8" fill="red" transform="scale(.5)"/>
		<polygon id='arrowai' points="0 -1 7 -21 12 -15 47 -50 49 -48 14 -13 20 -8" fill="darkblue" transform="scale(.25)"/>
		<polygon id='arrowam' points="0 -1 7 -21 12 -15 47 -50 49 -48 14 -13 20 -8" fill="rgb(48,48,0)" transform="scale(.25)"/>
		<polygon id='arrowao' points="0 -1 7 -21 12 -15 47 -50 49 -48 14 -13 20 -8" fill="darkgreen" transform="scale(.25)"/>
		<clipPath id="round">
			<circle r="8" cx="8" cy="8"/>
		</clipPath>
		<clipPath id="roundm">
			<circle r="4" cx="4" cy="4"/>
		</clipPath>
	</defs>
	
	<style>
		svg{font-family:"Verdana";}
		path{fill:none;}
		.visible{display:inline;}
		.invisible{display:none;}
		.nothovertext{display:block!important;}
		.hoverrange circle,.hoverrange use{display:none;}
		.hoverrange:hover circle,.hoverrange:hover use{display:block;}
		.hoverrange text{text-shadow:#fff 0 0 2px,#fff 0 0 2px,#fff 0 0 2px,#fff 0 0 2px;}
		.i{font-style:italic;}
		.range,.line,#kirkwood circle{fill:none;cx:0px;cy:100px;}
		.hill{stroke:rgba(255, 128, 128, 0.5);fill:rgba(255, 128, 128, 0.25);cy:100px;}
		.line,#kirkwood circle{stroke-width:1;}
		.range{stroke-opacity:0.5;}
		#kirkwood circle{stroke:pink;}
		#kirkwoodminor circle{stroke-opacity:0.2;}
		#af circle{cx:0px;cy:100px;stroke-opacity:0.2;fill:none;}
		#af text{font-size:4px;}
		#iaf circle{stroke:darkblue;}
		#iaf text{fill:darkblue;}
		#maf circle{stroke:rgb(32,32,0);}
		#maf text{fill:olive;}
		#oaf circle{stroke:rgb(0,48,0);}
		#oaf text{fill:darkgreen;}
		#raf circle{cx:0px;cy:100px;stroke-opacity:0.2;fill:none;}
		#raf text{font-size:4px;}
		#beltsections text{font-style:italic;font-size:8px;}
		#rtno circle,#plutino circle{cx:0px;cy:100px;stroke:seagreen;fill:none;}
		#rtno text,.desc text{font-size:10px;fill:white;}
		.po,.mo{cx:0px;cy:100px;stroke-width:1px;fill:none;}
		.po{stroke:white;}
		.mo{stroke:silver;}
		.moc{cy:100px;r:7px;fill:grey;}
		.body g text,#tnos a text{font-size:8px;fill:white;}
		.gas text{font-size:25px;fill:white;}
		/* rounded pix */
		.rp{height:16px;width:16px;clip-path:url(#round);}
		.rm{height:8px;width:8px;clip-path:url(#roundm);}
	</style>

	<a href='https://en.wikipedia.org/wiki/Interplanetary_medium'><!-- fallback -->
		<rect x="0" y="0" width="8000" height="200" fill="black"/>
	</a>

	<a href='https://en.wikipedia.org/wiki/Asteroid_belt'>
		<!-- Second -->
		<circle class='range' r="109.7" stroke="skyblue" stroke-width="21"/><!-- inner belt -->
		<circle class='range' r="127.95" stroke="khaki" stroke-width="15.5"/><!-- middle belt -->
		<circle class='range' r="146.6" stroke="lightgreen" stroke-width="21.8"/><!-- outer belt -->
	</a>

	<a id='kirkwood' href='https://en.wikipedia.org/wiki/Kirkwood_gap'><!-- Kirkwood Gaps -->
		<!-- second -->
		<circle r="99.2"/> <!-- 4:1 Inner -->
		<circle r="108.4"/> <!-- 7:2 Inner -->
		<circle r="120.2"/> <!-- 3:1 Inner/Mid -->
		<circle r="135.7"/> <!-- 5:2 Mid/Outer-->
		<circle r="142.1"/> <!-- 7:3 Outer -->
		<circle r="157.5"/> <!-- 2:1 Outer -->
	</a>

	<circle class='line' r="100" stroke="grey"/>
	<text x="100" y="10" font-size="8" fill="grey">1 au</text>
	<circle class='line' r="200" stroke="grey"/>
	<text x="200" y="10" font-size="8" fill="grey">2 au</text>
	<circle class='line' r="400" stroke="grey"/>
	<text x="400" y="10" font-size="8" fill="grey">4 au</text>
	<circle class='line' r="800" stroke="grey"/>
	<text x="800" y="10" font-size="8" fill="grey">8 au</text>
	<circle class='line' r="1600" stroke="grey"/>
	<text x="1600" y="10" font-size="8" fill="grey">16 au</text>

	<a href='https://en.wikipedia.org/wiki/Frost_line_(astrophysics)'><!-- Frost Line -->
		<circle class='line' r="176.8" stroke="cyan"/>
		<text x="170" y="10" font-size="8" fill="cyan">Frost Line</text>
	</a>
	
	<a href='https://mocha2007.github.io/namei/namei.html#Namei'><!-- Namei -->
		<g class='hovertext'>
			<circle cx="0" cy="100" r="30" fill="peachpuff"/>
			<text x="0" y="102" font-size="8" fill="black">Namei</text>
		</g>
	</a>

	<path d="M 0 0" id="NoPath"/>

	<circle class='po' r="250"/><!-- Eisen orbit -->
	<a class='gas' href='https://mocha2007.github.io/namei/namei.html#Eisen'><!-- Eisen -->
		<circle cx="250" r="36.94" class="hill"/>
		<text x="258" y="110">Eisen</text>
		<path d="M -250 250 A 1 1 0 0 0 -250 -250" id="EisenPath"/>
		<circle cx="250" class='moc' style="fill:darkkhaki"/>
	</a>

	<circle class='po' r="660"/><!-- Neuve orbit -->
	<a class='gas' href='https://mocha2007.github.io/namei/namei.html#Neuve'><!-- Neuve -->
		<circle cx="660" r="22.06" class="hill"/>
		<text x="668" y="110">Neuve</text>
		<path d="M -660 660 A 1 1 0 0 0 -660 -660" id="NeuvePath"/>
		<circle cx="660" class='moc' style="fill:#7ca1ae"/>
	</a>

	<circle class='po' r="1373"/><!-- Dicito orbit -->
	<a class='gas' href='https://mocha2007.github.io/namei/namei.html#Dicito'><!-- Dicito -->
		<circle cx="1373" r="6.20" class="hill"/>
		<text x="1381" y="110">Dicito</text>
		<path d="M -1373 1373 A 1 1 0 0 0 -1373 -1373" id="DicitoPath"/>
		<circle cx="1373" class='moc' style="fill:sienna"/>
	</a>

	<circle class='po' r="2180"/><!-- Mannu orbit -->
	<a class='gas' href='https://mocha2007.github.io/namei/namei.html#Mannu'><!-- Mannu -->
		<circle cx="2180" r="143.76" class="hill"/>
		<text x="2188" y="110">Mannu</text>
		<path d="M -2180 2180 A 1 1 0 0 0 -2180 -2180" id="NeuvePath"/>
		<circle cx="2180" class='moc' style="fill:darkseagreen"/>
	</a>
	
	<a href='https://mocha2007.github.io'>
		<image href="https://mocha2007.github.io/img/mo.png" x="2175" y="170" height="24"/>
		<text x="2210" y="185" font-size="12" fill="cyan">mocha2007</text>
	</a>
</svg>