<?xml version="1.0" standalone="no"?>
<svg width="1000" height="650" version="1.1" xmlns="http://www.w3.org/2000/svg" xmlns:xlink="http://www.w3.org/1999/xlink">
	<desc>Nameian Eras</desc>
	<style>
		<!--#timeline text {
			transform: rotate(90deg);
		}-->
		#labels  text {
			text-anchor:end;
		}
	</style>
	<defs>
		<symbol id="timeline" style="overflow: visible;">
			<rect x="-3300" width="2500" height="100" style="fill:#FFBF00"/>
			<text x="-3300" y="50">Bronze Age</text>
			<rect x="-800" width="1300" height="100" style="fill:#eee"/>
			<text x="-800" y="50">Classical Era</text>
			<rect x="500" width="1000" height="100" style="fill:#444"/>
			<text x="500" y="50" fill="white">Medieval Era</text>
			<rect x="1500" width="250" height="100" style="fill:#EF7EBE"/>
			<text x="1500" y="50">Renaissance</text>
			<rect x="1750" width="150" height="100" style="fill:#C67537"/>
			<text x="1750" y="50">Industrial Era</text>
			<rect x="1900" width="45" height="100" style="fill:#4ABDDA"/>
			<text x="1900" y="50">Modern Era</text>
			<rect x="1945" width="45" height="100" style="fill:#91CAD8"/>
			<text x="1945" y="50">Atomic Era</text>
			<rect x="1990" width="30" height="100" style="fill:pink"/>
			<text x="1990" y="50">Information Era</text>
			<rect x="2020" width="1000" height="100" style="fill:magenta"/>
			<text x="2020" y="50">Future Era</text>
		</symbol>
	</defs>
	<use xlink:href="#timeline" x="0" y="30" transform="translate(-1020 0)"/>
	<use xlink:href="#timeline" x="0" y="160" transform="translate(-1250 0)"/>
	<use xlink:href="#timeline" x="0" y="290" transform="translate(-950 0)"/>
	<use xlink:href="#timeline" x="0" y="420" transform="translate(-850 0)"/>
	<use xlink:href="#timeline" x="0" y="550" transform="translate(1500 0)"/>
	<g id="labels">
		<text x="1000" y="20">Earth</text>
		<text x="1000" y="150">Pitang-Ra</text>
		<text x="1000" y="280">Nikki</text>
		<text x="1000" y="410">Maians</text>
		<text x="1000" y="540">Eremor</text>
	</g>
</svg>